<?xml version="1.0" encoding="UTF-8"?>
<svg id="Camada_1" xmlns="http://www.w3.org/2000/svg" version="1.1" viewBox="0 0 24 24">
  <!-- Generator: Adobe Illustrator 30.2.1, SVG Export Plug-In . SVG Version: 2.1.1 Build 1)  -->
  <defs>
    <style>
      .st0 {
        fill: #4285f3;
      }

      .st1 {
        fill: #e94335;
      }

      .st2 {
        fill: #34a753;
      }

      .st3 {
        fill: #1a73e7;
      }

      .st4 {
        fill: #fabb04;
      }

      .st5 {
        fill: #fefefe;
      }
    </style>
  </defs>
  <rect class="st5" width="24" height="24"/>
  <g>
    <path class="st2" d="M9.37,16.25l.39-.83,2.84-3.37.73-.54c-.14-.44.52-.98.89-1.14l.24-.56,2.09-2.47c.2-.32.42-.44.69-.35,1.18,2.23.87,4.91-.7,6.95l-2.27,2.94c-1.74,2.26-1.48,3.97-2.33,3.88-.73-.07-.47-1.75-2.15-3.82-.18-.22-.31-.51-.42-.71v.02Z"/>
    <g>
      <path class="st4" d="M13.34,11.51c-1.24,1.64-2.61,3.19-3.96,4.74-.87-.85-1.52-1.83-2.22-2.79-.26-.36-.33-.75-.49-1.08l-.03-.33c1.02-1.16,2.05-2.32,3.08-3.48l.28.06.17.27c-.56,1.83,1.19,3.28,2.9,2.47l.28.14h0Z"/>
      <path class="st0" d="M17.24,6.99c-.95.87-2.06,2.61-3.01,3.38l-.21-.23c.25-1.78-1.35-2.97-2.98-2.25l-.27-.16c-.29-.14-.18-.32,0-.53l2.6-3.15.36-.05c1.69.5,2.76,1.57,3.51,2.98h0Z"/>
      <path class="st3" d="M13.73,4.02l-2.7,3.27c-.13.16-.24.29-.28.46.19.35-.21.75-.53.47-.07.07-.19.16-.25.12-.44-.3-2.24-1.78-2.51-2.14l.02-.31c1.54-1.93,4-2.53,6.24-1.87h.01Z"/>
      <path class="st1" d="M10.23,8.21c.27.27.11.5-.24.42l-3.33,3.75c-1.05-2.12-.75-4.85.83-6.5l2.74,2.33Z"/>
      <path class="st5" d="M14.23,10.37c-.11.45-.62.78-.89,1.14-.93.49-2.01.49-2.8-.23-.74-.68-.94-1.71-.55-2.65.05-.13.2-.28.24-.42.22-.07.37-.34.53-.47.88-.4,1.84-.46,2.61.12.77.58,1.08,1.58.86,2.51Z"/>
    </g>
  </g>
</svg>