<?xml version="1.0" encoding="UTF-8"?>
<svg id="Camada_1" xmlns="http://www.w3.org/2000/svg" version="1.1" viewBox="0 0 24 24">
  <!-- Generator: Adobe Illustrator 30.2.1, SVG Export Plug-In . SVG Version: 2.1.1 Build 1)  -->
  <defs>
    <style>
      .st0 {
        fill: #020202;
      }

      .st1 {
        fill: #33cbfe;
      }

      .st2 {
        fill: #fefefe;
      }

      .st3 {
        fill: #040404;
      }

      .st4 {
        fill: #070707;
      }
    </style>
  </defs>
  <rect class="st1" width="24" height="24"/>
  <g>
    <path d="M7.59,17.26c-1.3-.7-2.34-1.64-2.91-2.97-.52-1.24,1.63-.29,1.43-2.24-.32-3.28,1.71-6.24,4.78-7.1,3.07-.86,6.43.65,7.78,3.56,1.4,3,.39,6.53-2.41,8.37.33,1.13-.21,2.17-1.18,2.44-1.07.29-2.06-.29-2.36-1.39-.53-.03-1-.04-1.51,0-.28.98-1.11,1.56-2.03,1.44-1-.12-1.72-.96-1.58-2.11h-.01Z"/>
    <g>
      <path class="st2" d="M7.83,16.57c-1.03-.51-1.85-1.29-2.43-2.39,1.06-.31,1.48-1.22,1.4-2.27-.27-3.23,1.98-6.02,5.09-6.45s6.12,1.78,6.63,4.92-1.63,6.19-4.84,6.74c-.85.15-1.65.08-2.49.06-.23-.77-.75-1.27-1.44-1.4s-1.4.08-1.92.79Z"/>
      <path class="st0" d="M13.38,13.52c1.87.05,1.92-1.74,2.54-1.43.67.33-.67,2.12-2.41,2.15-1.89.04-3.2-1.85-2.54-2.15.61-.29.63,1.39,2.41,1.44h0Z"/>
      <circle class="st4" cx="11.23" cy="9.84" r=".72"/>
      <circle class="st3" cx="15.63" cy="9.84" r=".72"/>
    </g>
  </g>
</svg>