<?xml version="1.0" encoding="UTF-8"?>
<svg id="Camada_1" xmlns="http://www.w3.org/2000/svg" version="1.1" xmlns:serif="http://www.serif.com/" xmlns:xlink="http://www.w3.org/1999/xlink" viewBox="0 0 1000 1000">
  <!-- Generator: Adobe Illustrator 30.1.0, SVG Export Plug-In . SVG Version: 2.1.1 Build 136)  -->
  <defs>
    <style>
      .st0 {
        fill: #fff;
      }

      .st1 {
        fill: url(#Gradiente_sem_nome);
      }
    </style>
    <linearGradient id="Gradiente_sem_nome" data-name="Gradiente sem nome" x1="161.8" y1="856.28" x2="839.8" y2="146.34" gradientTransform="translate(0 1002) scale(1 -1)" gradientUnits="userSpaceOnUse">
      <stop offset="0" stop-color="#00db82"/>
      <stop offset="1" stop-color="#00a441"/>
    </linearGradient>
  </defs>
  <path class="st1" d="M552.87,64.05c-.82,2.69,26.49,1.6,35.36,2.18l19.19,1.27c59.89,3.96,119.01,11.9,174.08,35.02,53.33,22.39,93.57,62.64,115.97,115.95,23.18,55.17,31.09,114.11,35.03,174.09l1.27,19.33c.56,8.56-.5,36.13,2.18,35.23v105.56l-2.44,35.51-1,19.03c-1.34,25.53-4.32,50.08-8.07,75.31-13.93,93.69-50.27,175.33-141.78,214.26-71.52,30.43-153.29,35.41-230.43,38.19-35.21,1.27-69.05,1.28-104.27,0-80.04-2.92-172.2-8.39-244.65-44.95-40.89-20.63-72.69-52.45-93.33-93.35-36.61-72.53-42.01-164.5-44.96-244.65-1.29-35.22-1.28-69.05,0-104.27,2.79-77.3,7.72-158.78,38.19-230.43,50.48-118.68,171.19-141.72,287.88-149.74l20.65-1.42c12.28-.84,24.59.83,35.58-2.14h105.56v.02Z"/>
  <path class="st0" d="M727.75,380.6c2.89,10.63,7.69,40.95,8.06,52.86,1.29,41.88-9.05,76.64-25.94,114.26-24.54,54.65-65.03,108.03-102.69,154.27l-5.86,7.19c-7.06,8.67-14.01,17.43-22.04,25.17-3.26,3.14-5.23,6.12-8.12,9.51-17.25,20.18-35.33,39.11-53.78,58.17-6.21,6.42-13.47,8.24-22.2,7.14-7.24-.92-12.12-5.35-17.46-11.6-11.74-13.72-26.83-25.05-33.41-39.36-13.85-30.16-16.82-54.1-13.83-87.74,1.47-16.6,5.62-31.77,12-46.75,5.46-12.81,14.19-22.26,25.04-30.46,22.55-17.05,36.86-5.83,66.62-7.37,17.91-.93,34.92-5.53,49.9-15.43,17.58-11.63,31.1-27.75,40.87-46.19,1.42-2.68.22-6-2.45-6.84-19.01-6.06-38.36-7.93-58.14-5.64-20.83,2.41-39,10.82-54.37,24.99-16.67,15.38-23.17,31.64-46.94,37.48,1.19-4.69,3.13-8.72,5.4-13.15l36.38-70.95,7.18-17.86c9.57-23.82,18.51-48.24,23.02-74.28,6.01-34.71,6.39-70.26-13.95-100.09-4.19-6.14-21.17-27.87-27.52-27.78-1.37.02-3.21,1.17-4.24,2.89-17.75,29.87-25.65,64.77-11.94,98.11,5.16,12.54,12.41,23.04,20.71,33.59,9.7,12.34,12.3,27.98,6.12,42.41-2.27,5.29-3.14,11.27-5.53,15.9-10.34,20.03-21.95,39.11-33.9,58.87l-28.39,46.96c-8.23-12.64-4.51-26.04-7.01-36.39.54-1.3-.06-3.33-.06-4.71,0-.78,0-1.58-.04-2.36-.02-.4-.26-.78-.33-1.18-1.36-7.64-3.2-15.11-5.82-22.4-4.57-12.73-11.19-25.22-21.03-35.46-14.83-15.43-33.61-25.67-53.96-32.05-2.1-.66-4.58.34-5.54,1.37-.68.73-1.53,2.21-1.73,3.98-4.85,42.16,4.63,75.77,37.95,103.23,9.57,7.89,27.47,16,31.45,21.41,15.92,21.67,7.51,51.1-4.32,73.38-5.93,11.18-17.37,18.02-29.19,18.61-12.12.61-24.61-5.4-31.2-15.41l-28.44-43.2c-26.72-40.59-52.53-102.8-52.98-152.48-.25-27.9,4.47-55.11,13.44-81.21,9.32-27.11,26.83-57.24,45.55-77.78,13.31-14.61,26.72-27.43,42.89-38.34,26.85-18.12,55.84-31.81,87.86-37.13l10.73-1.78c44.95-7.47,90.4-.62,132.17,17.99,54.35,24.22,97.19,68.85,120.2,123.87,4.28,10.23,8.11,19.74,10.83,29.75h-.02ZM559.35,403.18c44.29-1.14,75.95-27.96,79.68-70.93.87-10.06-32.51,1.85-37.34,3.92-12.56,5.4-22.12,14.11-30.05,25.03-5.51,7.59-15.34,31.18-12.29,41.97h0ZM467.12,478.83c8.04-20.25,6.88-51.1-1.97-68.15-4.89-19.78-34.67-43.62-53.68-48.68-5.12.28-5.45,8.85-5.86,12.39-3.09,26.92-.58,52.33,17.96,73.13,11.85,13.29,26.05,24.54,43.54,31.31h0ZM617.42,469.53c13.48-10.2,23.69-23.2,30.82-38.46.68-1.45.19-3.61-.41-4.53-.52-.78-1.71-1.79-3.41-2.12-30.78-6.04-55.07-6.42-81.38,13.38-12.79,9.62-22.51,22.09-29.46,36.46-1.28,2.66.3,5.54,3.13,6.23,28.17,6.87,56.63,7.25,80.71-10.96h0Z"/>
</svg>